<?xml version="1.0" encoding="utf-8"?>
<!-- Generator: Adobe Illustrator 16.0.0, SVG Export Plug-In . SVG Version: 6.00 Build 0)  -->
<!DOCTYPE svg PUBLIC "-//W3C//DTD SVG 1.1//EN" "http://www.w3.org/Graphics/SVG/1.1/DTD/svg11.dtd">
<svg version="1.1" id="Layer_1" xmlns="http://www.w3.org/2000/svg" xmlns:xlink="http://www.w3.org/1999/xlink" x="0px" y="0px"
	   viewBox="0 0 1000 1000" enable-background="new 0 0 1000 1000" xml:space="preserve">
<g id="XMLID_1_">
	<rect id="XMLID_3_" x="326.008" y="352.993" fill="#233F8C" width="65.182" height="41.657"/>
	<path id="XMLID_4_" fill="#233F8C" d="M229.706,448.56h71.063c0,0-16.173-89.441-117.622-97.527c0,0-91.646-4.656-123.747,87.48
		c0,0-25.24,61.507,23.034,120.563c0,0,31.611,43.617,96.302,44.597c0,0,53.175,4.412,93.117-42.146c0,0,26.709-31.121,28.67-56.851
		h-69.837c0,0-19.604,39.942-61.506,31.855c0,0-39.452-1.471-49.254-49.744c0,0-6.861-46.804,37.492-65.428
		C157.417,421.36,205.936,405.187,229.706,448.56"/>
	<polygon id="XMLID_5_" fill="#233F8C" points="326.008,413.764 390.945,413.764 390.945,599.508 326.008,599.508 	"/>
	<path id="XMLID_8_" fill="#233F8C" d="M494.598,526.975c8.333,11.762,24.26,19.113,38.718,15.438
		c3.185-0.734,5.88-2.45,8.821-3.185c12.496-7.106,20.829-22.055,19.113-37.737c-2.205-11.027-9.312-22.054-19.604-26.955
		c-8.331-4.656-20.338-5.392-28.915-2.206c-7.107,2.94-13.478,7.351-18.134,13.966C486.512,497.569,486.757,515.457,494.598,526.975
		 M488.471,431.652c0,0,12.744-12.498,23.771-16.418c0,0,23.524-9.311,50.233,1.226c0,0,26.465,7.106,47.539,35.776
		c0,0,19.849,26.71,16.907,58.811c0,0,0.245,35.531-27.198,61.507c0,0-24.995,28.669-64.938,28.425c0,0-21.564,4.41-46.558-20.094
		v68.122h-65.673V413.764h65.673v16.909"/>
	<rect id="XMLID_9_" x="651.917" y="352.503" fill="#233F8C" width="65.672" height="247.005"/>
	<path id="XMLID_12_" fill="#233F8C" d="M806.295,510.802c1.716,14.948,12.743,26.955,25.484,31.366
		c13.723,4.655,30.385-0.245,39.942-11.763c8.332-10.047,10.292-24.259,5.881-36.512c-4.655-13.723-19.113-23.034-33.571-23.279
		c-12.252-0.245-23.769,5.88-31.12,15.682C808.255,493.648,805.315,501.735,806.295,510.802 M879.809,413.764h67.387v185.99h-67.387
		v-17.153c0,0-19.85,21.072-44.354,19.112c0,0-52.194,2.696-80.619-46.313c0,0-15.928-26.466-12.987-51.214
		c0,0,0.244-23.525,12.007-42.639c0,0,9.557-17.643,22.789-27.69c0,0,23.524-17.888,40.678-18.869c0,0,36.266-11.027,62.486,17.153
		V413.764z"/>
</g>
</svg>
